<svg xmlns="http://www.w3.org/2000/svg" xmlns:xlink="http://www.w3.org/1999/xlink" width="500" zoomAndPan="magnify" viewBox="0 0 375 374.999991" height="500" preserveAspectRatio="xMidYMid meet" version="1.0"><defs><g/><clipPath id="02aa112bd3"><path d="M 68 158 L 142.953125 158 L 142.953125 218.234375 L 68 218.234375 Z M 68 158 " clip-rule="nonzero"/></clipPath></defs><g clip-path="url(#02aa112bd3)"><path fill="#333333" d="M 138.554688 192.457031 L 127.746094 181.695312 L 132.011719 177.449219 L 135.109375 177.449219 C 136.039062 178.316406 140.050781 182.375 139.917969 187.601562 C 139.871094 189.25 139.417969 190.871094 138.554688 192.457031 Z M 136.027344 195.859375 L 125.140625 185.019531 L 118.179688 185.019531 L 113.8125 189.371094 L 98.617188 189.371094 L 90.738281 181.523438 L 97.949219 181.523438 C 98.082031 182.355469 98.796875 182.992188 99.667969 182.992188 C 100.636719 182.992188 101.417969 182.210938 101.417969 181.253906 C 101.417969 180.292969 100.636719 179.511719 99.667969 179.511719 C 98.796875 179.511719 98.082031 180.148438 97.949219 180.980469 L 82.101562 180.980469 L 89.160156 173.953125 L 102.160156 173.953125 L 110.214844 181.96875 L 127.242188 181.96875 L 138.273438 192.949219 C 137.683594 193.933594 136.933594 194.90625 136.027344 195.859375 Z M 132.976562 198.578125 L 132.695312 198.789062 L 132.546875 199.105469 C 132.523438 199.152344 130.152344 204.058594 125.316406 205.984375 L 123.992188 206.511719 L 126.695312 213.390625 C 127.09375 214.398438 126.367188 214.960938 126.136719 215.109375 C 125.65625 215.414062 124.925781 215.515625 124.324219 214.890625 C 123.753906 214.300781 123.292969 213.792969 122.953125 213.390625 C 117.695312 207.164062 110.855469 205.4375 105.359375 204.054688 C 100.378906 202.796875 96.441406 201.804688 94.800781 198.214844 L 94.40625 197.355469 L 93.457031 197.375 C 93.363281 197.378906 84.121094 197.550781 78.210938 194.628906 C 75.996094 193.535156 74.265625 191.792969 73.152344 189.683594 L 82.460938 189.683594 L 87.359375 194.554688 L 105.710938 194.554688 L 109.269531 198.101562 L 106.433594 200.925781 L 105.296875 200.925781 C 105.164062 200.09375 104.449219 199.457031 103.578125 199.457031 C 102.609375 199.457031 101.828125 200.238281 101.828125 201.199219 C 101.828125 202.160156 102.609375 202.9375 103.578125 202.9375 C 104.449219 202.9375 105.164062 202.300781 105.296875 201.46875 L 106.660156 201.46875 L 109.769531 198.371094 L 113.8125 198.371094 L 118.988281 203.527344 L 122.894531 203.527344 C 123.027344 204.355469 123.742188 204.992188 124.617188 204.992188 C 125.582031 204.992188 126.363281 204.214844 126.363281 203.253906 C 126.363281 202.292969 125.582031 201.511719 124.617188 201.511719 C 123.742188 201.511719 123.027344 202.148438 122.894531 202.980469 L 119.214844 202.980469 L 114.039062 197.828125 L 109.769531 197.828125 L 105.9375 194.011719 L 94.507812 194.011719 L 98.617188 189.917969 L 113.8125 189.917969 L 118.027344 194.113281 L 122.894531 194.113281 C 123.027344 194.941406 123.742188 195.578125 124.617188 195.578125 C 125.582031 195.578125 126.363281 194.800781 126.363281 193.839844 C 126.363281 192.878906 125.582031 192.101562 124.617188 192.101562 C 123.742188 192.101562 123.027344 192.738281 122.894531 193.566406 L 118.253906 193.566406 L 114.3125 189.644531 L 118.40625 185.566406 L 124.914062 185.566406 L 135.648438 196.253906 C 134.863281 197.039062 133.972656 197.8125 132.976562 198.578125 Z M 71.914062 181.648438 C 71.917969 181.605469 71.929688 181.566406 71.9375 181.523438 L 89.960938 181.523438 L 98.117188 189.644531 L 93.730469 194.011719 L 87.585938 194.011719 L 82.6875 189.136719 L 72.882812 189.136719 C 71.84375 186.902344 71.46875 184.304688 71.914062 181.648438 Z M 85.132812 170.363281 L 85.777344 170.277344 L 86.140625 169.742188 C 86.46875 169.257812 93.558594 159.066406 104.933594 161.84375 L 97.5 169.242188 L 93.113281 169.242188 L 88.933594 173.40625 L 88.855469 173.484375 L 81.328125 180.980469 L 72.042969 180.980469 C 73.308594 175.226562 78.148438 171.277344 85.132812 170.363281 Z M 109.519531 163.589844 L 110.039062 163.449219 C 110.15625 163.417969 121.925781 160.390625 129.042969 165.441406 C 129.984375 166.109375 130.800781 166.898438 131.5 167.800781 L 125.871094 173.40625 L 117.835938 173.40625 C 117.707031 172.574219 116.988281 171.9375 116.117188 171.9375 C 115.152344 171.9375 114.371094 172.71875 114.371094 173.679688 C 114.371094 174.640625 115.152344 175.417969 116.117188 175.417969 C 116.988281 175.417969 117.707031 174.78125 117.835938 173.953125 L 126.097656 173.953125 L 131.828125 168.25 C 133.308594 170.355469 134.175781 173.042969 134.414062 176.289062 L 134.460938 176.882812 L 134.480469 176.902344 L 131.78125 176.902344 L 127.242188 181.421875 L 110.441406 181.421875 L 102.660156 173.679688 L 108.246094 168.117188 L 119.332031 168.117188 C 119.464844 168.949219 120.179688 169.585938 121.050781 169.585938 C 122.015625 169.585938 122.800781 168.804688 122.800781 167.84375 C 122.800781 166.882812 122.015625 166.105469 121.050781 166.105469 C 120.179688 166.105469 119.464844 166.742188 119.332031 167.574219 L 108.019531 167.574219 L 102.160156 173.40625 L 89.710938 173.40625 L 93.339844 169.789062 L 97.726562 169.789062 L 105.546875 162.003906 C 106.671875 162.320312 107.832031 162.757812 109.035156 163.351562 Z M 137.238281 175.507812 C 136.710938 169.976562 134.519531 165.808594 130.714844 163.109375 C 123.347656 157.882812 112.386719 159.96875 109.832031 160.554688 C 101.664062 156.742188 95.039062 158.949219 90.894531 161.503906 C 87.339844 163.695312 85.015625 166.464844 84.140625 167.613281 C 74.46875 169.117188 70.015625 175.5625 69.074219 181.179688 C 67.953125 187.882812 71.109375 194.316406 76.929688 197.195312 C 82.394531 199.898438 90 200.214844 92.613281 200.242188 C 95 204.398438 99.699219 205.582031 104.652344 206.832031 C 110.015625 208.183594 116.089844 209.714844 120.75 215.234375 C 121.132812 215.683594 121.632812 216.238281 122.246094 216.871094 C 123.105469 217.765625 124.210938 218.222656 125.335938 218.222656 C 126.132812 218.222656 126.945312 217.992188 127.6875 217.523438 C 129.46875 216.386719 130.148438 214.308594 129.375 212.34375 L 127.6875 208.050781 C 132.027344 205.796875 134.367188 201.820312 134.988281 200.648438 C 140.046875 196.703125 142.671875 192.339844 142.792969 187.675781 C 142.953125 181.519531 138.671875 176.886719 137.238281 175.507812 " fill-opacity="1" fill-rule="nonzero"/></g><g fill="#5e17eb" fill-opacity="1"><g transform="translate(154.73708, 198.364864)"><g><path d="M 6.046875 0 L 6.046875 -16.78125 L 0.140625 -16.78125 L 0.140625 -21.140625 L 17.328125 -21.140625 L 17.328125 -16.78125 L 11.421875 -16.78125 L 11.421875 0 Z M 6.046875 0 "/></g></g></g><g fill="#5e17eb" fill-opacity="1"><g transform="translate(171.031399, 198.364864)"><g><path d="M 4.984375 0 L 1.859375 -3.1875 L 1.859375 -21.140625 L 7.234375 -21.140625 L 7.234375 -5.078125 L 8.234375 -4.078125 L 14.0625 -4.078125 L 15.0625 -5.078125 L 15.0625 -21.140625 L 20.421875 -21.140625 L 20.421875 -3.1875 L 17.234375 0 Z M 4.984375 0 "/></g></g></g><g fill="#5e17eb" fill-opacity="1"><g transform="translate(192.145213, 198.364864)"><g><path d="M 6.046875 0 L 6.046875 -16.78125 L 0.140625 -16.78125 L 0.140625 -21.140625 L 17.328125 -21.140625 L 17.328125 -16.78125 L 11.421875 -16.78125 L 11.421875 0 Z M 6.046875 0 "/></g></g></g><g fill="#5e17eb" fill-opacity="1"><g transform="translate(208.439531, 198.364864)"><g><path d="M 4.625 0 L 1.4375 -3.1875 L 1.4375 -17.953125 L 4.625 -21.140625 L 17.015625 -21.140625 L 20.203125 -17.953125 L 20.203125 -3.1875 L 17.015625 0 Z M 7.828125 -4.078125 L 13.859375 -4.078125 L 14.859375 -5.078125 L 14.859375 -16.0625 L 13.796875 -17.0625 L 7.828125 -17.0625 L 6.796875 -16.0625 L 6.796875 -5.078125 Z M 7.828125 -4.078125 "/></g></g></g><g fill="#5e17eb" fill-opacity="1"><g transform="translate(228.893538, 198.364864)"><g><path d="M 2.015625 0 L 2.015625 -21.140625 L 16.40625 -21.140625 L 19.625 -17.953125 L 19.625 -10.390625 L 17.21875 -7.96875 L 20.421875 0 L 15.03125 0 L 12.25 -7.203125 L 7.375 -7.203125 L 7.375 0 Z M 7.375 -11.28125 L 13.390625 -11.28125 L 14.40625 -12.28125 L 14.40625 -16.0625 L 13.390625 -17.0625 L 7.375 -17.0625 Z M 7.375 -11.28125 "/></g></g></g><g fill="#5e17eb" fill-opacity="1"><g transform="translate(249.003295, 198.364864)"><g><path d="M 0 0 L 6.203125 -21.140625 L 14.921875 -21.140625 L 21.109375 0 L 15.4375 0 L 14.375 -4.21875 L 6.734375 -4.21875 L 5.6875 0 Z M 7.796875 -8.34375 L 13.3125 -8.34375 L 11.078125 -17.09375 L 10.046875 -17.09375 Z M 7.796875 -8.34375 "/></g></g></g><g fill="#5e17eb" fill-opacity="1"><g transform="translate(268.940915, 198.364864)"><g><path d="M 1.140625 0 L 1.140625 -4.046875 L 3.5 -4.046875 L 3.4375 -17.09375 L 1.140625 -17.09375 L 1.140625 -21.140625 L 10.90625 -21.140625 L 10.90625 -17.09375 L 8.578125 -17.09375 L 8.515625 -4.046875 L 10.90625 -4.046875 L 10.90625 0 Z M 1.140625 0 "/></g></g></g></svg>